<?xml version="1.0" encoding="utf-8"?>
<!-- Generator: Adobe Illustrator 25.1.0, SVG Export Plug-In . SVG Version: 6.00 Build 0)  -->
<svg version="1.1" id="Layer_5" xmlns="http://www.w3.org/2000/svg" xmlns:xlink="http://www.w3.org/1999/xlink" x="0px" y="0px"
	 viewBox="0 0 141.6 131.04" style="enable-background:new 0 0 141.6 131.04;" xml:space="preserve">
<style type="text/css">
	.st0{fill:none;stroke:#000000;stroke-width:2;stroke-miterlimit:10;}
</style>
<g>
	<path class="st0" d="M41.78,56.98"/>
	<path class="st0" d="M41.77,57.11"/>
	<path class="st0" d="M41.74,57.41"/>
	<line class="st0" x1="101.68" y1="93.39" x2="101.68" y2="93.38"/>
	<line class="st0" x1="101.67" y1="93.39" x2="101.68" y2="93.39"/>
	<line class="st0" x1="101.67" y1="93.39" x2="101.68" y2="93.38"/>
	<path class="st0" d="M32.16,74.62c1.53,1.44,3.11,2.82,4.75,4.13c0.15,0.06,0.3,0.11,0.45,0.17c3.58,0.07,7.21,0.02,10.76-0.07
		c1.66-0.09,3.3-0.24,4.94-0.43c3.29-0.37,6.52-0.94,9.69-1.67c0.02,0.2,0.03,0.4,0.05,0.59c0.09,1.3,0.13,2.63,0.07,3.95
		c-0.08,2.64-0.41,5.21-0.98,7.7c-0.21,0.94-0.45,1.87-0.73,2.78c-0.17,0.55-0.35,1.09-0.54,1.63c0.74-0.36,1.46-0.74,2.18-1.14
		c1.13-0.63,2.23-1.32,3.3-2.06c1.25-0.87,2.45-1.81,3.6-2.81c0.23,1.12,0.4,2.26,0.53,3.41c0.04,0.31,0.07,0.62,0.1,0.93
		c0.31-0.28,0.6-0.57,0.9-0.86c1.17-1.14,2.27-2.35,3.3-3.62c0.67,1.11,1.29,2.25,1.86,3.43c0.69,1.43,1.28,2.91,1.8,4.43
		c0.66,1.94,1.18,3.95,1.53,6.02c1.43-1.8,2.72-3.73,3.83-5.77c1.12-2.06,2.06-4.24,2.81-6.49c2.43,1.76,4.65,3.78,6.63,6.02
		c0.51,0.58,1,1.17,1.47,1.77c0.24-0.67,0.46-1.36,0.67-2.05c0.86-2.88,1.41-5.9,1.6-9.01c1.94,2.38,3.62,4.98,4.98,7.77
		c1.52-4.31,2.36-9.02,2.27-13.83c2.59,1.75,4.96,3.8,7.06,6.09c0.16-4.42-0.49-8.85-1.73-12.9c2.7-0.89,5.27-2.05,7.68-3.46
		c-3.75-3.82-8.25-6.89-13.27-8.97c0.05-1.96-0.14-3.91-0.46-5.79c-1.16-6.63-4.41-12.54-9.07-17.01c-3.42-3.28-7.58-5.8-12.22-7.25
		c-1.51-3.92-4.78-6.96-8.85-8.16c-1.61,1.24-2.93,2.83-3.86,4.65c-0.39,0.76-0.7,1.57-0.94,2.41c-0.62,0.09-1.24,0.19-1.85,0.31
		c-1.17-0.83-2.38-1.6-3.64-2.3c-1.46-0.81-2.97-1.53-4.53-2.17c-0.56-0.22-1.12-0.44-1.69-0.64c-0.81-0.35-1.65-0.62-2.54-0.8
		c-0.1-0.03-0.19-0.05-0.28-0.07c-0.38-0.07-0.77-0.13-1.17-0.17c-1.7-0.17-3.03,1.52-2.39,3.11c1.23,3.08,1.37,6.74,0.17,9.8
		c-0.6,2.62-1.89,4.71-3.53,5.71c-0.33,0.2-0.57,0.53-0.73,0.89c-0.49,1.17-0.96,2.36-1.41,3.57c-0.02,0.05-0.04,0.1-0.06,0.14
		c-0.28,0.58-0.53,1.18-0.77,1.78c-1.11,2.77-1.84,5.73-2.1,8.83c-0.01,0.08-0.01,0.17-0.02,0.25c-0.36,0.32-0.72,0.63-1.09,0.94
		c-4.48,3.78-9.41,7.04-14.69,9.71c0.54,0.65,1.1,1.29,1.67,1.93C29.07,71.6,30.59,73.14,32.16,74.62"/>
	<path class="st0" d="M57.94,24.88c0.56,0.22,1.11,0.45,1.65,0.69"/>
</g>
</svg>
